<?xml version="1.0" encoding="UTF-8"?>
<svg width="512" height="512" version="1.1" viewBox="0 0 512 512" xmlns="http://www.w3.org/2000/svg" xmlns:xlink="http://www.w3.org/1999/xlink">
  <defs>
    <pattern id="polkadots" width="50" height="50" patternUnits="userSpaceOnUse">
      <circle cx="12" cy="18" r=".5"/>
      <circle cx="44" cy="12" r=".5"/>
      <circle cx="25" cy="25" r=".5"/>
      <circle cx="11" cy="42" r=".5"/>
      <circle cx="34" cy="48" r=".5"/>
    </pattern>
    <filter id="filter" x="-.12" y="-1" height="3" color-interpolation-filters="sRGB">
      <feGaussianBlur stdDeviation="25.82"/>
    </filter>
    <clipPath id="clip">
      <rect width="512" height="512" rx="100" ry="100" fill="black" fill-opacity=".25" style="paint-order:normal"/>
    </clipPath>
  </defs>
  <g clip-path="url(#clip)">
    <!-- Water -->
    <rect y="450" width="512" height="62" fill="#699aff" fill-opacity=".5" filter="url(#filter)" style="paint-order:normal"/>
    <rect y="450" width="512" height="62" fill="#003fc2" style="paint-order:normal"/>
    <!-- Top Soil -->
    <rect y="30" width="512" height="60" fill="#7e7e7e" style="paint-order:normal"/>
    <rect y="30" width="512" height="60" fill="url(#polkadots)" opacity=".4" style="paint-order:normal"/>
    <g fill-opacity=".12" style="paint-order:normal">
      <circle cx="74" cy="70" r="10"/>
      <circle cx="133" cy="47" r="10"/>
      <circle cx="206" cy="72" r="10"/>
      <circle cx="240" cy="53" r="10"/>
      <circle cx="278" cy="64" r="10"/>
      <circle cx="327" cy="52" r="10"/>
      <circle cx="381" cy="68" r="10"/>
      <circle cx="417" cy="50" r="10"/>
      <circle cx="451" cy="75" r="10"/>
      <circle cx="485" cy="55" r="10"/>
      <circle cx="30" cy="48" r="10"/>
    </g>
    <!-- Chambers -->
    <rect y="90" width="512" height="120" fill="#00c6c6"/>
    <g fill-opacity=".06" style="paint-order:normal">
      <rect x="34" y="129" width="24" height="42"/>
      <rect x="118" y="90" width="24" height="120"/>
      <rect x="202" y="129" width="24" height="42"/>
      <rect x="286" y="129" width="24" height="42"/>
      <rect x="370" y="90" width="24" height="120"/>
      <rect x="454" y="129" width="24" height="42"/>
    </g>
    <!-- Bottom Soil -->
    <rect y="210" width="512" height="240" fill="#fffced"/>
    <rect y="210" width="512" height="240" fill="url(#polkadots)" opacity=".3" style="paint-order:normal"/>
    <g fill-opacity=".06" style="paint-order:normal">
      <circle cx="39" cy="270" r="12"/>
      <circle cx="83" cy="342" r="12"/>
      <circle cx="179" cy="407" r="12"/>
      <circle cx="137" cy="295" r="12"/>
      <circle cx="197" cy="245" r="12"/>
      <circle cx="254" cy="345" r="12"/>
      <circle cx="317" cy="289" r="12"/>
      <circle cx="329" cy="400" r="12"/>
      <circle cx="409" cy="310" r="12"/>
      <circle cx="422" cy="364" r="12"/>
      <circle cx="465" cy="262" r="12"/>
      <circle cx="362" cy="245" r="12"/>
      <circle cx="105" cy="240" r="12"/>
      <circle cx="460" cy="403" r="12"/>
      <circle cx="49" cy="404" r="12"/>
    </g>
    <!-- Grass -->
    <path d="m279-1e-6c-13 7.4-14 17-15 30h10c0.06-12 1.2-18 5-30zm-250 6e-3c-0.35 0.015-0.7 0.058-1 0.13 8.1 7.4 10 25 10 30h24c-0.38-9.8 0.25-13 3-25-6.7 2.8-12 15-13 21-3.1-8.7-14-27-23-26zm-1.9 5c-8.4 3.5-15 22-13 25h10c-0.38-9.8 0.25-13 3-25zm104 0c-8.4 3.5-15 22-13 25h10c-0.38-9.8 0.25-13 3-25zm33 0c-8.4 3.5-15 22-13 25h10c-0.38-9.8 0.25-13 3-25zm20 0c2.8 12 3.4 15 3 25h10c1.7-3.5-4.6-22-13-25zm32 0c-8.4 3.5-15 22-13 25h10c-0.38-9.8 0.25-13 3-25zm6.6 0c2.8 12 3.4 15 3 25h10c1.7-3.5-4.6-22-13-25zm82 0c2.8 12 3.4 15 3 25h10c1.7-3.5-4.6-22-13-25zm18 0c2.8 12 3.4 15 3 25h10c1.7-3.5-4.6-22-13-25zm53 0c2.8 12 3.4 15 3 25h10c1.7-3.5-4.6-22-13-25zm63 0c2.8 12 3.4 15 3 25h10c1.7-3.5-4.6-22-13-25zm-99 5c2.8 9.6 3.4 12 3 20h10c1.7-2.8-4.6-17-13-20z" fill="#5bc97d" style="paint-order:normal"/>
    <path d="m1.1 0.04c3.8 12 4.9 18 5 30h10c-0.89-13-2-23-15-30zm41 0c3.8 12 4.9 18 5 30h10c-0.89-13-2-23-15-30zm27 0c2.5 7.8 3.8 13 4.5 19-1.4-3.6-4-6.7-9.1-9.3 2.8 7.9 3.6 12 3.7 20h16c-0.89-13-2-23-15-30zm36 0c3.8 12 4.9 18 5 30h10c-0.89-13-2-23-15-30zm18 0c3.8 12 4.9 18 5 30h10c-0.89-13-2-23-15-30zm18 0c3.8 12 4.9 18 5 30h10c-0.89-13-2-23-15-30zm33 0c-13 7.4-14 17-15 30h10c0.06-12 1.2-18 5-30zm18 0c-13 7.4-14 17-15 30h10c0.06-12 1.2-18 5-30zm18 0c-13 7.4-14 17-15 30h10c0.06-12 1.2-18 5-30zm21 0c3.8 12 4.9 18 5 30h10c-0.89-13-2-23-15-30zm17 0c3.8 12 4.9 18 5 30h16c-0.38-9.8 0.25-13 3-25-4.4 1.8-8.2 7.6-11 13-1.6-7.3-4.9-13-14-18zm46 0c3.8 12 4.9 18 5 30h10c-0.89-13-2-23-15-30zm18 0c3.8 12 4.9 18 5 30h10c-0.89-13-2-23-15-30zm18 0c3.8 12 4.9 18 5 30h10c-0.89-13-2-23-15-30zm18 0c3.8 12 4.9 18 5 30h10c-0.89-13-2-23-15-30zm18 0c3.8 12 4.9 18 5 30h10c-0.89-13-2-23-15-30zm27 0c3.8 12 4.9 18 5 30h10c-0.89-13-2-23-15-30zm18 0c3.8 12 4.9 18 5 30h10c-0.89-13-2-23-15-30zm18 0c3.8 12 4.9 18 5 30h10c-0.89-13-2-23-15-30zm44 0c-13 7.4-14 17-15 30h10c0.06-12 1.2-18 5-30zm1 0c3.8 12 4.9 18 5 30h10c-0.89-13-2-23-15-30zm15 0c3.8 12 4.8 18 4.8 30l10 0.079h7.9c-0.17-14-1.6-23-12-30 3 12 3.9 18 4 29-0.89-12-2.3-22-15-29zm-474 8c3.3 12 3.8 14 4 22h10c-0.8-4.6-7.5-17-14-22zm271 2c-12 5-13 12-14 20h9.3c0.056-8.2 1.1-12 4.7-20zm-65 0.16c-8.6 4.9-9.3 12-9.9 20h6.6c0.039-8.2 0.79-12 3.3-20z" fill="green" style="paint-order:normal"/>
    <path d="m20 0.023c-8.7 1.4-20 14-20 30h12c-0.082-5.2 1.5-23 8-30zm3.8 0c3.8 12 4.9 18 5 30h10c-0.89-13-2-23-15-30zm59 6e-3c-0.35 0.015-0.7 0.058-1 0.13 6.3 5.7 8.9 18 9.7 25-2.6-5.6-7.5-13-12-17 3.3 12 3.8 14 4 22h27c0.15-7.8 0.72-10 4-22-3.8 3.1-7.7 8.6-10 14-4.5-9.2-13-22-21-22zm126 0c-0.35 0.015-0.7 0.058-1 0.13 8.1 7.4 10 25 10 30h15c0.32-4.7-13-31-24-30zm63 0c-0.35 0.015-0.7 0.058-1 0.13 8.1 7.4 10 25 10 30h18c0.15-7.8 0.72-10 4-22-3.8 3.1-7.7 8.6-10 14-4.5-9.2-13-22-21-22zm110 0c-9-0.38-20 17-23 26-2.5-5.7-7.6-14-13-18 3.3 12 3.8 14 4 22h22c-0.1-5.2 1.9-23 10-30-0.35-0.072-0.7-0.12-1-0.13zm34 0c-0.35 0.015-0.7 0.058-1 0.13 8.1 7.4 10 25 10 30h15c0.32-4.7-13-31-24-30zm42 0c-0.35 0.015-0.7 0.058-1 0.13 8.1 7.4 10 25 10 30h15c0.32-4.7-13-31-24-30zm-55 4c3.6 10 4.6 15 4.7 26h9.3c-0.83-11-1.9-20-14-26zm-330 4c-6.5 5.2-13 18-14 22h10c0.15-7.8 0.72-10 4-22zm77 0c-6.5 5.2-13 18-14 22h10c0.15-7.8 0.72-10 4-22zm14 0c3.3 12 3.8 14 4 22h10c-0.8-4.6-7.5-17-14-22zm93 0c-6.5 5.2-13 18-14 22h10c0.15-7.8 0.72-10 4-22zm127 0c3.3 12 3.8 14 4 22h10c-0.8-4.6-7.5-17-14-22zm63 0c3.3 12 3.8 14 4 22h10c-0.8-4.6-7.5-17-14-22zm47 0c0.34 1.2 0.54 2 0.82 3.1-5.3 6-10 15-11 19h10c0.11-5.9 0.46-8.6 2-15 1.5 6 1.9 8.8 2 15h10c-0.67-3.8-5.5-13-11-19 0.28-1 0.48-1.8 0.82-3.1-0.66 0.54-1.3 1.2-2 1.8-0.66-0.67-1.3-1.3-2-1.8z" fill="#80e880" style="paint-order:normal"/>
  </g>
</svg>
